<svg version="1.1" id="Capa_1" xmlns="http://www.w3.org/2000/svg" x="0" y="0" viewBox="0 0 489.8 489.8" style="enable-background:new 0 0 489.8 489.8" xml:space="preserve"><path d="M0 328.25V80.55c0-19.5 15.8-35.3 35.3-35.3h366.5c19.5 0 35.3 15.8 35.3 35.3v76.9h-48.2v-64.1H48.1v221.6h260v48.5H258v39.4h28c4.7 0 8.5 3.8 8.5 8.5v24.5c0 4.7-3.8 8.5-8.5 8.5H150.9c-4.7 0-8.5-3.8-8.5-8.5v-24.5c0-4.7 3.8-8.5 8.5-8.5h28v-39.4H35.3c-19.5.1-35.3-15.7-35.3-35.2zm489.8 82.5V218.15c0-15.7-12.4-28.6-27.6-28.6h-94.4c-15.2 0-27.6 12.9-27.6 28.6v197.8c0 15.7 12.4 28.6 27.6 28.6h94.4c15.2 0 27.6-12.9 27.6-28.6v-5.2zm-204.7-264.2-38.6-26c-2.1-1.4-4.9.1-4.9 2.6v14.1h-77.1c-6.6 0-11.9 5.3-11.9 11.9v63.4h23.9v-51.5h65.1v14.1c0 2.5 2.8 4.1 4.9 2.6l38.6-26c1.9-1.2 1.9-4 0-5.2zm-94.6 79.4-38.6 26c-1.9 1.3-1.9 4 0 5.3l38.6 26c2.1 1.4 4.9-.1 4.9-2.6v-14.1h77.1c6.6 0 11.9-5.3 11.9-11.9v-63.4h-23.9v51.5h-65.1v-14.1c0-2.6-2.8-4.1-4.9-2.7z"/></svg>